<svg id="Layer_1" data-name="Layer 1" xmlns="http://www.w3.org/2000/svg" width="693.31" height="197.43" viewBox="0 0 693.31 197.43"><path d="M130.59-.43S96.78,28.89,70,90.58,44.74,197,44.74,197s33.81-29.32,60.64-91S130.59-.43,130.59-.43" transform="translate(-0.72 0.43)"/><path d="M89,12S64,33.67,44.1,79.32s-18.66,78.75-18.66,78.75,25-21.69,44.87-67.35S89,12,89,12" transform="translate(-0.72 0.43)"/><path d="M58.27,21.15S39.74,37.22,25,71s-13.81,58.33-13.81,58.33,18.53-16.07,33.23-49.88S58.27,21.15,58.27,21.15" transform="translate(-0.72 0.43)"/><path d="M35.64,27.91S21.89,39.83,11,64.93.73,108.21.73,108.21s13.75-11.92,24.66-37S35.64,27.91,35.64,27.91" transform="translate(-0.72 0.43)"/><path d="M161.65,78.87H139.46V58.56h68.81V78.87h-22.2v58.94H161.65Z" transform="translate(-0.72 0.43)"/><path d="M217,58.56h24.42V86.08h22.87V58.56h24.42v79.25H264.33V106.4H241.46v31.41H217Z" transform="translate(-0.72 0.43)"/><path d="M297.51,58.56h65.6V78.87H321.93v9.88h37.41v18.87H321.93v9.88h42.4v20.31H297.51Z" transform="translate(-0.72 0.43)"/><path d="M397,58.56h61.27V78.87H421.42v9.88h31.64v18.87H421.42v30.19H397Z" transform="translate(-0.72 0.43)"/><path d="M467,58.56h66.82V78.87h-42.4v9.88h37.41v18.87H491.46v9.88h42.4v20.31H467Z" transform="translate(-0.72 0.43)"/><path d="M542.63,58.56h66.82V78.87h-42.4v9.88h37.41v18.87H567.05v9.88h42.4v20.31H542.63Z" transform="translate(-0.72 0.43)"/><path d="M618.22,58.56h40.07c26.42,0,35.74,19.53,35.74,39.51,0,24.31-12.88,39.74-40.51,39.74h-35.3Zm24.42,58.94h9.54c15.21,0,17.43-12.33,17.43-19.76,0-5-1.55-18.87-19.2-18.87h-7.77Z" transform="translate(-0.72 0.43)"/></svg>